<?xml version="1.0" standalone="no"?>
<!DOCTYPE svg PUBLIC "-//W3C//DTD SVG 20010904//EN"
 "http://www.w3.org/TR/2001/REC-SVG-20010904/DTD/svg10.dtd">
<svg version="1.0" xmlns="http://www.w3.org/2000/svg"
 width="200.000000pt" height="200.000000pt" viewBox="0 0 200.000000 200.000000"
 preserveAspectRatio="xMidYMid meet">

<g transform="translate(0.000000,200.000000) scale(0.100000,-0.100000)"
fill="#000000" stroke="none">
<path d="M0 1000 l0 -1000 1000 0 1000 0 0 1000 0 1000 -1000 0 -1000 0 0
-1000z m1594 203 c-8 -116 -17 -133 -51 -101 -14 13 -27 18 -32 12 -5 -5 -59
-76 -121 -159 -112 -150 -143 -185 -162 -185 -6 0 -41 30 -80 68 l-70 67 -34
-40 c-19 -22 -46 -57 -61 -79 l-28 -39 118 -111 c123 -117 136 -139 100 -178
-34 -38 -54 -25 -275 187 -117 113 -216 205 -220 205 -4 0 -53 -47 -109 -105
-57 -58 -110 -105 -121 -105 -24 0 -58 35 -58 60 0 28 256 300 282 300 12 0
59 -37 110 -85 49 -47 92 -85 96 -85 4 0 44 47 90 105 46 58 90 105 98 105 8
0 44 -27 79 -60 35 -33 68 -60 72 -60 9 0 21 15 138 168 l78 102 -28 30 c-16
16 -26 32 -24 35 8 7 161 43 192 44 l27 1 -6 -97z"/>
</g>
</svg>
